# xmcd CD database file
#
# Track frame offsets:
#	150
#	10957
#	20198
#	26315
#	36292
#	44543
#	53597
#	62813
#	71783
#	82699
#	91167
#	101666
#	114033
#	124985
#	136001
#	145440
#	156334
#	164487
#	172269
#	184091
#	193579
#	201300
#	211169
#
# Disc length: 2950 seconds
#
# Revision: 0
# Processed by: cddbd v1.5.2PL0 Copyright (c) Steve Scherf et al.
# Submitted via: CDex 1.70beta2
#
DISCID=460b8417
DTITLE=Chuck Miller - The House of Blue Lights
DYEAR=1900
DGENRE=Blues
TTITLE0=The House of blue Lights
TTITLE1=Plaything
TTITLE2=Chuck´s Boogie
TTITLE3=How Many Hearts have you broken?
TTITLE4=Bright Red Convertible
TTITLE5=Vim Vam Vamose
TTITLE6=No Baby like you
TTITLE7=Cow Cow Boogie
TTITLE8=Hawkeye
TTITLE9=By bye love
TTITLE10=Boogie Blues
TTITLE11=Saturday Night Fish Fry
TTITLE12=Lookout Mountain
TTITLE13=The Auctioneer
TTITLE14=Hopahoola Boogie
TTITLE15=Baltimore Jones
TTITLE16=Millers Boogie
TTITLE17=September in the rain
TTITLE18=Cool it Baby
TTITLE19=Rang Tang Ding Dong
TTITLE20=I cant´t give you anything but love
TTITLE21=After yesterday
TTITLE22=Down the road a piece
EXTD=
EXTT0=
EXTT1=
EXTT2=
EXTT3=
EXTT4=
EXTT5=
EXTT6=
EXTT7=
EXTT8=
EXTT9=
EXTT10=
EXTT11=
EXTT12=
EXTT13=
EXTT14=
EXTT15=
EXTT16=
EXTT17=
EXTT18=
EXTT19=
EXTT20=
EXTT21=
EXTT22=
PLAYORDER=
